<mxfile host="app.diagrams.net" agent="Mozilla/5.0 (Windows NT 10.0; Win64; x64) AppleWebKit/537.36 (KHTML, like Gecko) Chrome/139.0.0.0 Safari/537.36" version="28.1.0">
  <diagram name="Page-1" id="knrP1FRMyhIRJTOhsAG8">
    <mxGraphModel dx="1924" dy="1731" grid="1" gridSize="10" guides="1" tooltips="1" connect="1" arrows="1" fold="1" page="1" pageScale="1" pageWidth="827" pageHeight="1169" math="0" shadow="0">
      <root>
        <mxCell id="0" />
        <mxCell id="1" parent="0" />
        <mxCell id="nb5A6RRDomXuttytV97Y-37" value="" style="edgeStyle=orthogonalEdgeStyle;rounded=0;orthogonalLoop=1;jettySize=auto;html=1;" edge="1" parent="1" source="7wEqkuw75IH8k5fswQXJ-28">
          <mxGeometry relative="1" as="geometry">
            <mxPoint x="390" y="300" as="targetPoint" />
          </mxGeometry>
        </mxCell>
        <mxCell id="nb5A6RRDomXuttytV97Y-39" style="edgeStyle=orthogonalEdgeStyle;rounded=0;orthogonalLoop=1;jettySize=auto;html=1;entryX=1;entryY=0.5;entryDx=0;entryDy=0;" edge="1" parent="1" source="7wEqkuw75IH8k5fswQXJ-28" target="7wEqkuw75IH8k5fswQXJ-30">
          <mxGeometry relative="1" as="geometry">
            <Array as="points">
              <mxPoint x="530" y="190" />
              <mxPoint x="530" y="65" />
            </Array>
          </mxGeometry>
        </mxCell>
        <mxCell id="7wEqkuw75IH8k5fswQXJ-28" value="Validated" style="rhombus;whiteSpace=wrap;html=1;" parent="1" vertex="1">
          <mxGeometry x="340" y="140" width="100" height="100" as="geometry" />
        </mxCell>
        <mxCell id="nb5A6RRDomXuttytV97Y-38" value="" style="edgeStyle=orthogonalEdgeStyle;rounded=0;orthogonalLoop=1;jettySize=auto;html=1;" edge="1" parent="1" source="7wEqkuw75IH8k5fswQXJ-30" target="7wEqkuw75IH8k5fswQXJ-28">
          <mxGeometry relative="1" as="geometry" />
        </mxCell>
        <mxCell id="7wEqkuw75IH8k5fswQXJ-30" value="Login" style="rounded=0;whiteSpace=wrap;html=1;" parent="1" vertex="1">
          <mxGeometry x="330" y="40" width="120" height="50" as="geometry" />
        </mxCell>
        <mxCell id="7wEqkuw75IH8k5fswQXJ-34" value="Approve posts" style="rounded=0;whiteSpace=wrap;html=1;" parent="1" vertex="1">
          <mxGeometry x="150" y="350" width="120" height="50" as="geometry" />
        </mxCell>
        <mxCell id="7wEqkuw75IH8k5fswQXJ-35" value="Manage posts" style="rounded=0;whiteSpace=wrap;html=1;" parent="1" vertex="1">
          <mxGeometry x="330" y="350" width="120" height="50" as="geometry" />
        </mxCell>
        <mxCell id="MtbSdQDAzY2VFWzhyp_4-16" value="Manage Users" style="rounded=0;whiteSpace=wrap;html=1;" parent="1" vertex="1">
          <mxGeometry x="-30" y="350" width="120" height="50" as="geometry" />
        </mxCell>
        <mxCell id="MtbSdQDAzY2VFWzhyp_4-17" value="Role Update" style="rounded=0;whiteSpace=wrap;html=1;" parent="1" vertex="1">
          <mxGeometry x="690" y="350" width="120" height="50" as="geometry" />
        </mxCell>
        <mxCell id="WK3NlKsNAJOg3aepo1eA-1" value="Live locations of users" style="rounded=0;whiteSpace=wrap;html=1;" parent="1" vertex="1">
          <mxGeometry x="510" y="350" width="120" height="50" as="geometry" />
        </mxCell>
        <mxCell id="nb5A6RRDomXuttytV97Y-36" value="" style="edgeStyle=orthogonalEdgeStyle;rounded=0;orthogonalLoop=1;jettySize=auto;html=1;" edge="1" parent="1" source="nb5A6RRDomXuttytV97Y-1" target="7wEqkuw75IH8k5fswQXJ-30">
          <mxGeometry relative="1" as="geometry" />
        </mxCell>
        <mxCell id="nb5A6RRDomXuttytV97Y-1" value="" style="ellipse;whiteSpace=wrap;html=1;aspect=fixed;" vertex="1" parent="1">
          <mxGeometry x="375" y="-30" width="30" height="30" as="geometry" />
        </mxCell>
        <mxCell id="nb5A6RRDomXuttytV97Y-3" value="" style="endArrow=none;html=1;rounded=0;fontStyle=1;startSize=15;strokeColor=default;strokeWidth=2;" edge="1" parent="1">
          <mxGeometry width="50" height="50" relative="1" as="geometry">
            <mxPoint x="-70" y="300" as="sourcePoint" />
            <mxPoint x="850" y="300" as="targetPoint" />
          </mxGeometry>
        </mxCell>
        <mxCell id="nb5A6RRDomXuttytV97Y-5" value="" style="endArrow=none;html=1;rounded=0;fontStyle=1;startSize=15;strokeColor=default;strokeWidth=2;" edge="1" parent="1">
          <mxGeometry width="50" height="50" relative="1" as="geometry">
            <mxPoint x="-70" y="454" as="sourcePoint" />
            <mxPoint x="850" y="454" as="targetPoint" />
          </mxGeometry>
        </mxCell>
        <mxCell id="nb5A6RRDomXuttytV97Y-6" value="" style="endArrow=classic;html=1;rounded=0;" edge="1" parent="1" target="MtbSdQDAzY2VFWzhyp_4-16">
          <mxGeometry width="50" height="50" relative="1" as="geometry">
            <mxPoint x="30" y="300" as="sourcePoint" />
            <mxPoint x="360" y="440" as="targetPoint" />
          </mxGeometry>
        </mxCell>
        <mxCell id="nb5A6RRDomXuttytV97Y-7" value="" style="endArrow=classic;html=1;rounded=0;" edge="1" parent="1">
          <mxGeometry width="50" height="50" relative="1" as="geometry">
            <mxPoint x="209.5" y="300" as="sourcePoint" />
            <mxPoint x="209.5" y="350" as="targetPoint" />
          </mxGeometry>
        </mxCell>
        <mxCell id="nb5A6RRDomXuttytV97Y-8" value="" style="endArrow=classic;html=1;rounded=0;" edge="1" parent="1">
          <mxGeometry width="50" height="50" relative="1" as="geometry">
            <mxPoint x="390" y="300" as="sourcePoint" />
            <mxPoint x="390" y="350" as="targetPoint" />
          </mxGeometry>
        </mxCell>
        <mxCell id="nb5A6RRDomXuttytV97Y-9" value="" style="endArrow=classic;html=1;rounded=0;" edge="1" parent="1">
          <mxGeometry width="50" height="50" relative="1" as="geometry">
            <mxPoint x="569.5" y="300" as="sourcePoint" />
            <mxPoint x="569.5" y="350" as="targetPoint" />
          </mxGeometry>
        </mxCell>
        <mxCell id="nb5A6RRDomXuttytV97Y-10" value="" style="endArrow=classic;html=1;rounded=0;" edge="1" parent="1">
          <mxGeometry width="50" height="50" relative="1" as="geometry">
            <mxPoint x="749.5" y="300" as="sourcePoint" />
            <mxPoint x="749.5" y="350" as="targetPoint" />
          </mxGeometry>
        </mxCell>
        <mxCell id="nb5A6RRDomXuttytV97Y-11" value="" style="endArrow=classic;html=1;rounded=0;" edge="1" parent="1">
          <mxGeometry width="50" height="50" relative="1" as="geometry">
            <mxPoint x="29.75" y="400" as="sourcePoint" />
            <mxPoint x="29.75" y="450" as="targetPoint" />
          </mxGeometry>
        </mxCell>
        <mxCell id="nb5A6RRDomXuttytV97Y-12" value="" style="endArrow=classic;html=1;rounded=0;" edge="1" parent="1">
          <mxGeometry width="50" height="50" relative="1" as="geometry">
            <mxPoint x="209.25" y="400" as="sourcePoint" />
            <mxPoint x="209.25" y="450" as="targetPoint" />
          </mxGeometry>
        </mxCell>
        <mxCell id="nb5A6RRDomXuttytV97Y-13" value="" style="endArrow=classic;html=1;rounded=0;" edge="1" parent="1">
          <mxGeometry width="50" height="50" relative="1" as="geometry">
            <mxPoint x="389.75" y="400" as="sourcePoint" />
            <mxPoint x="389.75" y="450" as="targetPoint" />
          </mxGeometry>
        </mxCell>
        <mxCell id="nb5A6RRDomXuttytV97Y-14" value="" style="endArrow=classic;html=1;rounded=0;" edge="1" parent="1">
          <mxGeometry width="50" height="50" relative="1" as="geometry">
            <mxPoint x="569.25" y="400" as="sourcePoint" />
            <mxPoint x="569.25" y="450" as="targetPoint" />
          </mxGeometry>
        </mxCell>
        <mxCell id="nb5A6RRDomXuttytV97Y-15" value="" style="endArrow=classic;html=1;rounded=0;" edge="1" parent="1">
          <mxGeometry width="50" height="50" relative="1" as="geometry">
            <mxPoint x="749.25" y="400" as="sourcePoint" />
            <mxPoint x="749.25" y="450" as="targetPoint" />
          </mxGeometry>
        </mxCell>
        <mxCell id="nb5A6RRDomXuttytV97Y-16" value="" style="endArrow=classic;html=1;rounded=0;" edge="1" parent="1">
          <mxGeometry width="50" height="50" relative="1" as="geometry">
            <mxPoint x="390" y="603" as="sourcePoint" />
            <mxPoint x="390" y="653" as="targetPoint" />
          </mxGeometry>
        </mxCell>
        <mxCell id="nb5A6RRDomXuttytV97Y-17" value="" style="ellipse;whiteSpace=wrap;html=1;aspect=fixed;" vertex="1" parent="1">
          <mxGeometry x="375" y="654" width="30" height="30" as="geometry" />
        </mxCell>
        <mxCell id="nb5A6RRDomXuttytV97Y-18" value="&lt;font style=&quot;font-size: 14px;&quot;&gt;Admin&lt;/font&gt;" style="text;html=1;align=center;verticalAlign=middle;whiteSpace=wrap;rounded=0;" vertex="1" parent="1">
          <mxGeometry x="375" y="-10" width="166" height="30" as="geometry" />
        </mxCell>
        <mxCell id="nb5A6RRDomXuttytV97Y-19" value="Read" style="rounded=0;whiteSpace=wrap;html=1;" vertex="1" parent="1">
          <mxGeometry x="222" y="503" width="120" height="50" as="geometry" />
        </mxCell>
        <mxCell id="nb5A6RRDomXuttytV97Y-21" value="Create" style="rounded=0;whiteSpace=wrap;html=1;" vertex="1" parent="1">
          <mxGeometry x="42" y="503" width="120" height="50" as="geometry" />
        </mxCell>
        <mxCell id="nb5A6RRDomXuttytV97Y-22" value="Delete" style="rounded=0;whiteSpace=wrap;html=1;" vertex="1" parent="1">
          <mxGeometry x="617" y="503" width="120" height="50" as="geometry" />
        </mxCell>
        <mxCell id="nb5A6RRDomXuttytV97Y-23" value="Update" style="rounded=0;whiteSpace=wrap;html=1;" vertex="1" parent="1">
          <mxGeometry x="437" y="503" width="120" height="50" as="geometry" />
        </mxCell>
        <mxCell id="nb5A6RRDomXuttytV97Y-25" value="" style="endArrow=none;html=1;rounded=0;fontStyle=1;startSize=15;strokeColor=default;strokeWidth=2;" edge="1" parent="1">
          <mxGeometry width="50" height="50" relative="1" as="geometry">
            <mxPoint x="-70" y="604" as="sourcePoint" />
            <mxPoint x="850" y="604" as="targetPoint" />
          </mxGeometry>
        </mxCell>
        <mxCell id="nb5A6RRDomXuttytV97Y-26" value="" style="endArrow=classic;html=1;rounded=0;" edge="1" parent="1" target="nb5A6RRDomXuttytV97Y-21">
          <mxGeometry width="50" height="50" relative="1" as="geometry">
            <mxPoint x="102" y="453" as="sourcePoint" />
            <mxPoint x="432" y="593" as="targetPoint" />
          </mxGeometry>
        </mxCell>
        <mxCell id="nb5A6RRDomXuttytV97Y-27" value="" style="endArrow=classic;html=1;rounded=0;" edge="1" parent="1">
          <mxGeometry width="50" height="50" relative="1" as="geometry">
            <mxPoint x="281.5" y="453" as="sourcePoint" />
            <mxPoint x="281.5" y="503" as="targetPoint" />
          </mxGeometry>
        </mxCell>
        <mxCell id="nb5A6RRDomXuttytV97Y-29" value="" style="endArrow=classic;html=1;rounded=0;" edge="1" parent="1">
          <mxGeometry width="50" height="50" relative="1" as="geometry">
            <mxPoint x="496.5" y="453" as="sourcePoint" />
            <mxPoint x="496.5" y="503" as="targetPoint" />
          </mxGeometry>
        </mxCell>
        <mxCell id="nb5A6RRDomXuttytV97Y-30" value="" style="endArrow=classic;html=1;rounded=0;" edge="1" parent="1">
          <mxGeometry width="50" height="50" relative="1" as="geometry">
            <mxPoint x="676.5" y="453" as="sourcePoint" />
            <mxPoint x="676.5" y="503" as="targetPoint" />
          </mxGeometry>
        </mxCell>
        <mxCell id="nb5A6RRDomXuttytV97Y-31" value="" style="endArrow=classic;html=1;rounded=0;" edge="1" parent="1">
          <mxGeometry width="50" height="50" relative="1" as="geometry">
            <mxPoint x="101.75" y="553" as="sourcePoint" />
            <mxPoint x="101.75" y="603" as="targetPoint" />
          </mxGeometry>
        </mxCell>
        <mxCell id="nb5A6RRDomXuttytV97Y-32" value="" style="endArrow=classic;html=1;rounded=0;" edge="1" parent="1">
          <mxGeometry width="50" height="50" relative="1" as="geometry">
            <mxPoint x="281.25" y="553" as="sourcePoint" />
            <mxPoint x="281.25" y="603" as="targetPoint" />
          </mxGeometry>
        </mxCell>
        <mxCell id="nb5A6RRDomXuttytV97Y-34" value="" style="endArrow=classic;html=1;rounded=0;" edge="1" parent="1">
          <mxGeometry width="50" height="50" relative="1" as="geometry">
            <mxPoint x="496.25" y="553" as="sourcePoint" />
            <mxPoint x="496.25" y="603" as="targetPoint" />
          </mxGeometry>
        </mxCell>
        <mxCell id="nb5A6RRDomXuttytV97Y-35" value="" style="endArrow=classic;html=1;rounded=0;" edge="1" parent="1">
          <mxGeometry width="50" height="50" relative="1" as="geometry">
            <mxPoint x="676.25" y="553" as="sourcePoint" />
            <mxPoint x="676.25" y="603" as="targetPoint" />
          </mxGeometry>
        </mxCell>
      </root>
    </mxGraphModel>
  </diagram>
</mxfile>
